<svg xmlns="http://www.w3.org/2000/svg" width="273.47" height="235.43" viewBox="0 0 273.47 235.43"><defs><style>.cls-1{isolation:isolate;}.cls-2{fill:#c8eefc;opacity:0.37;}.cls-3{fill:#7dbf8c;}.cls-4{fill:#003ca6;}.cls-5{fill:#0087ff;}.cls-6{fill:#f1f8ff;}.cls-7{fill:#3888e8;}.cls-8{fill:#5eb5f7;}.cls-9{fill:#b9ddff;}.cls-10{fill:#2599ff;}.cls-11,.cls-18{mix-blend-mode:multiply;}.cls-12{fill:silver;}.cls-13{fill:#1e79d3;}.cls-14{fill:#ebf2fc;}.cls-15{fill:#fafbfd;}.cls-16{fill:#7ab0f6;}.cls-17{fill:none;stroke:#7ab0f6;stroke-miterlimit:10;}.cls-18{fill:#c1e8fa;}.cls-19{fill:#203b70;}.cls-20{fill:#5090cc;}.cls-21{fill:#fff;}.cls-22{fill:#fac5ca;}.cls-23{fill:#004e4a;}.cls-24{fill:#00848a;}.cls-25{fill:#ff7a00;}.cls-26{fill:#ff9a00;}.cls-27{fill:#25228a;}.cls-28{fill:#ff769d;}.cls-29{fill:#f06494;}.cls-30{fill:#0b52ff;}.cls-31{fill:#2075ff;}.cls-32{fill:#f9c4c9;}.cls-33{fill:#ef4d8c;}.cls-34{fill:#005ef0;}.cls-35{fill:#0f3872;}.cls-36{fill:#e5f2fd;}.cls-37{fill:#ffd4b3;}.cls-38{fill:#f4e7d8;}.cls-39{fill:#003ba4;}.cls-40{fill:#00beed;}.cls-41{fill:#ebebeb;}.cls-42{fill:#c4c4c4;}.cls-43{fill:#04c;}.cls-44{fill:#007ee3;}.cls-45{fill:#d9d9d9;}</style></defs><title>Asset 1</title><g class="cls-1"><g id="Layer_2" data-name="Layer 2"><g id="Layer_3" data-name="Layer 3"><ellipse class="cls-2" cx="139.7" cy="153.85" rx="129.04" ry="47.47"/><path class="cls-2" d="M18.74,195.28c-6.21,4.24,2.18,16.31,7.11,17.82s26.05-1,28.44-5.73c1.89-3.72-10.66-6.55-16-8.91C28.22,194,27,189.66,18.74,195.28Z"/><path class="cls-2" d="M120.59,217.4c-8.41,7.38,2.87,16.51,10.35,17.81s22.89-3,28.22-13.83C162.6,214.4,141.58,199,120.59,217.4Z"/><path class="cls-2" d="M224.93,205.46c-1.92-5.3,14.07-7.13,20.81-8.54,8-1.67,18.42-7.21,21.85-2.28,5.94,8.5,7.17,17.59-11.85,19.1S229.08,216.92,224.93,205.46Z"/><path class="cls-2" d="M169.88,212c4.16-4.47,15.42-6.94,18.65-2.32,3,4.33,4.3,7.71-5.38,8.48S163.78,218.58,169.88,212Z"/><path class="cls-3" d="M45.54,146l-1.91-.32s-.67-14.74-2.22-19.2c0,0-21.23-.51-24.36-16.16,0,0,16.4-5,24.42,13.81a165.51,165.51,0,0,0-4.2-27.93s-16,2.55-18.11-11.42c0,0,9.76-4.43,17,4.34,0,0-2.11-11-4.62-16.58,0,0-12.09,1.69-15.5-10.31,0,0,8.86-1,14.35,5.41L26.24,56s-9.68-7.83-6.79-19.29a15.75,15.75,0,0,1,8.16,18l4,12.6s2-11.78,10.47-11.71c0,0,.05,14.47-8.82,16.52,0,0,4,11.59,5,20,0,0-.24-15.34,12.57-17.41,0,0,3.57,12-11.36,20a221.89,221.89,0,0,1,3.59,28.67,22.63,22.63,0,0,1,12.22-23.19s8,13.27-11.19,26.89A105.18,105.18,0,0,1,45.54,146Z"/><path class="cls-3" d="M231.08,143l2.13-.19s2-15.73,4.15-20.38c0,0,23.35,1.22,28.19-15.29,0,0-17.56-6.71-28.05,12.78a174.22,174.22,0,0,1,7.12-29.57s17.33,4,20.89-10.74c0,0-10.31-5.55-19,3.25,0,0,3.3-11.55,6.55-17.37,0,0,13.11,2.8,17.93-9.77,0,0-9.63-1.85-16.23,4.62l5.58-12.1s11.33-7.59,9.18-20.1c0,0-12.49,4.47-10.56,18.61l-5.49,13.16S252.35,47.15,243,46.52c0,0-1.35,15.5,8.19,18.43,0,0-5.39,12.08-7.31,21,0,0,1.63-16.41-12.24-19.69,0,0-5,12.59,10.68,22.33A235.11,235.11,0,0,0,235.81,119a23.91,23.91,0,0,0-11.33-25.84s-9.92,13.54,9.88,29.72A110.18,110.18,0,0,0,231.08,143Z"/><path class="cls-3" d="M192.91,122l1.66-1.29s-6.7-14.06-7.45-19c0,0,19.9-11.45,15.08-27.64,0,0-18.06,3.83-16.31,25.49A171.69,171.69,0,0,1,176,71.39s16.46-5.9,11.5-20c0,0-11.46.92-14,12.83,0,0-3.44-11.29-3.87-17.82,0,0,12.31-4.68,9.58-17.62,0,0-8.93,3.61-10.92,12.46L166.45,28.3S171.74,16,163.3,6.83c0,0-7.92,10.35,1.22,21L167,41.59s-7.72-10-15.77-5.48c0,0,7.15,13.49,16.59,10.82,0,0,2,12.84,5.18,21.22,0,0-7.41-14.4-20.59-9.7,0,0,2.59,13,20.71,12.71A229.11,229.11,0,0,0,184,99.71a23.5,23.5,0,0,0-23.14-15.26s-1,16.46,24,19.24A108.59,108.59,0,0,0,192.91,122Z"/><path class="cls-4" d="M259.15,188.14v-2.06h-.67v.43l-27.17-60.39a1.07,1.07,0,0,0-1-.63l-184.06.31a1,1,0,0,0-1,.67L21.47,186.15h-.75v2.09h0v0h0a1.07,1.07,0,0,0,1.07,1l236.3,0A1.07,1.07,0,0,0,259.15,188.14Z"/><rect class="cls-5" x="45.75" width="184.7" height="132.03" rx="8.72" ry="8.72"/><rect class="cls-6" x="54.89" y="7.95" width="164.4" height="109.56"/><path class="cls-7" d="M258.09,187.17l-236.3,0a1.06,1.06,0,0,1-1-1.46l24.5-61.38a5.92,5.92,0,0,1,1-2l184.06-.3a13.12,13.12,0,0,0,1,2l27.75,61.66A1.07,1.07,0,0,1,258.09,187.17Z"/><polygon class="cls-8" points="239.39 161 39.18 161.13 52.12 125.73 224.58 125.46 239.39 161"/><path class="cls-9" d="M63.91,158.58H50.36a.53.53,0,0,1-.5-.7l1.59-4.84a.53.53,0,0,1,.5-.37H65.22a.53.53,0,0,1,.51.67l-1.31,4.85A.53.53,0,0,1,63.91,158.58Z"/><path class="cls-9" d="M84.44,158.57H70.87a.52.52,0,0,1-.52-.65l1.2-4.85a.53.53,0,0,1,.51-.41H85.35a.53.53,0,0,1,.52.63L85,158.13A.54.54,0,0,1,84.44,158.57Z"/><path class="cls-9" d="M172.05,152.58h-5.73l-14.35,0H111.81l-19.63,0a.54.54,0,0,0-.53.44l-.8,4.85a.54.54,0,0,0,.53.62H187a.53.53,0,0,0,.52-.64L186.49,153a.53.53,0,0,0-.52-.42Z"/><path class="cls-9" d="M207.54,158.48H194a.53.53,0,0,1-.52-.41l-1.17-4.86a.53.53,0,0,1,.52-.66h13.27a.53.53,0,0,1,.51.38L208,157.8A.53.53,0,0,1,207.54,158.48Z"/><path class="cls-9" d="M228,158.47H214.51a.53.53,0,0,1-.51-.36l-1.56-4.87a.53.53,0,0,1,.5-.69l13.25,0a.54.54,0,0,1,.5.35l1.85,4.87A.54.54,0,0,1,228,158.47Z"/><path class="cls-9" d="M75.74,144.39h-2l-19,0a.53.53,0,0,0-.5.36l-1.59,4.85a.53.53,0,0,0,.5.7l19.16,0H86a.53.53,0,0,0,.52-.43l.91-4.86a.54.54,0,0,0-.52-.63Z"/><path class="cls-9" d="M105.85,150.27H92.74a.53.53,0,0,1-.52-.62l.8-4.85a.53.53,0,0,1,.52-.44l12.83,0a.53.53,0,0,1,.52.59l-.51,4.86A.54.54,0,0,1,105.85,150.27Z"/><path class="cls-9" d="M125.7,150.25H112.58a.52.52,0,0,1-.52-.57l.4-4.86a.53.53,0,0,1,.53-.48l12.83,0a.53.53,0,0,1,.53.55l-.12,4.86A.53.53,0,0,1,125.7,150.25Z"/><path class="cls-9" d="M145.54,150.23l-13.11,0a.54.54,0,0,1-.53-.54v-4.85a.53.53,0,0,1,.53-.53l12.83,0a.52.52,0,0,1,.53.5l.27,4.86A.52.52,0,0,1,145.54,150.23Z"/><path class="cls-9" d="M165.39,150.22H152.28a.53.53,0,0,1-.53-.49l-.38-4.86a.52.52,0,0,1,.52-.57l12.83,0a.54.54,0,0,1,.53.46l.66,4.86A.54.54,0,0,1,165.39,150.22Z"/><path class="cls-9" d="M185.22,150.2H172.13a.54.54,0,0,1-.53-.45l-.77-4.86a.52.52,0,0,1,.52-.61l12.82,0a.52.52,0,0,1,.51.42l1.06,4.87A.53.53,0,0,1,185.22,150.2Z"/><path class="cls-9" d="M204,144.25h-2.11l-11.08,0a.53.53,0,0,0-.51.65l1.17,4.87a.53.53,0,0,0,.51.4h13.79l19.12,0a.53.53,0,0,0,.5-.72l-1.85-4.87a.53.53,0,0,0-.5-.34Z"/><path class="cls-9" d="M72.49,136.12H57.37a.52.52,0,0,0-.5.36l-1.59,4.85a.53.53,0,0,0,.5.69h22.7a.53.53,0,0,0,.52-.41l1.1-4.85a.53.53,0,0,0-.52-.65Z"/><path class="cls-9" d="M97.15,142H84.53a.53.53,0,0,1-.52-.63l1-4.86a.52.52,0,0,1,.51-.42l12.34,0a.54.54,0,0,1,.53.61l-.72,4.86A.53.53,0,0,1,97.15,142Z"/><path class="cls-9" d="M116.32,142H103.69a.53.53,0,0,1-.52-.59l.6-4.86a.53.53,0,0,1,.53-.46l12.35,0a.52.52,0,0,1,.52.57l-.32,4.85A.53.53,0,0,1,116.32,142Z"/><path class="cls-9" d="M135.5,142H122.86a.53.53,0,0,1-.53-.55l.21-4.86a.54.54,0,0,1,.53-.51h12.36a.53.53,0,0,1,.53.52l.07,4.86A.54.54,0,0,1,135.5,142Z"/><path class="cls-9" d="M154.67,141.93,142,142a.53.53,0,0,1-.53-.51l-.19-4.86a.53.53,0,0,1,.53-.55l12.35,0a.53.53,0,0,1,.53.48l.47,4.86A.53.53,0,0,1,154.67,141.93Z"/><path class="cls-9" d="M173.84,141.91l-12.63,0a.53.53,0,0,1-.52-.47l-.58-4.86a.53.53,0,0,1,.52-.6H173a.53.53,0,0,1,.52.44l.86,4.86A.53.53,0,0,1,173.84,141.91Z"/><path class="cls-9" d="M193,141.89l-12.6,0a.54.54,0,0,1-.53-.43l-1-4.87a.54.54,0,0,1,.52-.63l12.33,0a.53.53,0,0,1,.51.4l1.26,4.87A.54.54,0,0,1,193,141.89Z"/><path class="cls-9" d="M212.57,135.94H197.88a.53.53,0,0,0-.51.67l1.36,4.87a.53.53,0,0,0,.51.38h22.5a.53.53,0,0,0,.5-.72l-1.85-4.87a.52.52,0,0,0-.49-.34Z"/><path class="cls-9" d="M70.6,133.76H58.5a.53.53,0,0,1-.51-.69l1.59-4.85a.53.53,0,0,1,.5-.37H71.91a.52.52,0,0,1,.51.66l-1.31,4.85A.53.53,0,0,1,70.6,133.76Z"/><path class="cls-9" d="M89.11,133.73l-12.13,0a.53.53,0,0,1-.51-.66l1.19-4.85a.53.53,0,0,1,.52-.4l11.85,0a.53.53,0,0,1,.52.63l-.92,4.85A.52.52,0,0,1,89.11,133.73Z"/><path class="cls-9" d="M107.62,133.71H95.48a.53.53,0,0,1-.53-.61l.8-4.86a.55.55,0,0,1,.53-.44l11.86,0a.54.54,0,0,1,.53.59l-.52,4.85A.54.54,0,0,1,107.62,133.71Z"/><path class="cls-9" d="M126.13,133.68l-12.16,0a.54.54,0,0,1-.53-.58l.41-4.85a.53.53,0,0,1,.53-.49l11.87,0a.53.53,0,0,1,.53.55l-.13,4.85A.52.52,0,0,1,126.13,133.68Z"/><path class="cls-9" d="M144.63,133.66H132.47a.53.53,0,0,1-.53-.53v-4.86a.53.53,0,0,1,.53-.53h11.88a.53.53,0,0,1,.53.5l.27,4.86A.54.54,0,0,1,144.63,133.66Z"/><path class="cls-9" d="M163.12,133.63l-12.14,0a.53.53,0,0,1-.53-.49l-.39-4.86a.53.53,0,0,1,.53-.57l11.87,0a.54.54,0,0,1,.53.46l.66,4.86A.53.53,0,0,1,163.12,133.63Z"/><path class="cls-9" d="M181.62,133.61H169.48a.53.53,0,0,1-.52-.44l-.78-4.87a.53.53,0,0,1,.52-.61l11.86,0a.53.53,0,0,1,.52.42l1.06,4.86A.54.54,0,0,1,181.62,133.61Z"/><path class="cls-9" d="M200.11,133.58l-12.12,0a.52.52,0,0,1-.51-.41l-1.18-4.86a.54.54,0,0,1,.52-.66l11.83,0a.53.53,0,0,1,.51.38l1.46,4.87A.53.53,0,0,1,200.11,133.58Z"/><path class="cls-9" d="M218.6,133.56H206.5a.53.53,0,0,1-.5-.36l-1.57-4.87a.54.54,0,0,1,.51-.7h11.81a.51.51,0,0,1,.49.34l1.85,4.87A.53.53,0,0,1,218.6,133.56Z"/><path class="cls-10" d="M182.07,184.55H97.74c-3.83,0-6.75-1.18-6.53-2.63l2.12-14.14c.22-1.45,3.28-2.63,6.84-2.63l78.47,0c3.56,0,6.69,1.17,7,2.63l2.84,14.16C188.76,183.37,185.89,184.55,182.07,184.55Z"/><path class="cls-10" d="M100.31,165.14c-3.56,0-6.62,1.18-6.84,2.64l-2.13,14.14c-.22,1.45,2.71,2.62,6.53,2.62h57l-33.41-19.41Z"/><g class="cls-11"><path class="cls-12" d="M121.68,165.15H100.52a13.26,13.26,0,0,0-4.77.81H123.1Z"/><path class="cls-12" d="M121.68,165.15l1.42.82h60.83a13.42,13.42,0,0,0-4.94-.85Z"/></g><g class="cls-11"><path class="cls-12" d="M164.32,187.19h-54a.87.87,0,0,1-.87-.87h0a.87.87,0,0,1,.87-.87h54a.87.87,0,0,1,.88.87h0A.87.87,0,0,1,164.32,187.19Z"/></g><path class="cls-12" d="M139.94,1.19h0a2.29,2.29,0,0,0-2.29,2.28h0a2.3,2.3,0,0,0,2.29,2.29h0a2.29,2.29,0,0,0,2.28-2.29h0A2.29,2.29,0,0,0,139.94,1.19Z"/><path class="cls-13" d="M63.91,157.92H50.36a.53.53,0,0,1-.5-.7l1.59-4.85A.53.53,0,0,1,52,152H65.22a.53.53,0,0,1,.51.67l-1.31,4.84A.52.52,0,0,1,63.91,157.92Z"/><path class="cls-13" d="M84.44,157.9H70.87a.53.53,0,0,1-.52-.65l1.2-4.86a.53.53,0,0,1,.51-.4H85.35a.53.53,0,0,1,.52.63L85,157.47A.53.53,0,0,1,84.44,157.9Z"/><path class="cls-13" d="M172.05,151.92H92.18a.54.54,0,0,0-.53.45l-.8,4.85a.54.54,0,0,0,.53.62l19.93,0h41.13l14.68,0H187a.53.53,0,0,0,.52-.64l-1.06-4.87a.53.53,0,0,0-.52-.41Z"/><path class="cls-13" d="M207.54,157.82H194a.53.53,0,0,1-.52-.41l-1.17-4.87a.53.53,0,0,1,.52-.65h13.27a.53.53,0,0,1,.51.38l1.45,4.86A.53.53,0,0,1,207.54,157.82Z"/><path class="cls-13" d="M228,157.8H214.51a.54.54,0,0,1-.51-.37l-1.56-4.86a.53.53,0,0,1,.5-.7h13.25a.54.54,0,0,1,.5.34l1.85,4.87A.53.53,0,0,1,228,157.8Z"/><path class="cls-13" d="M75.74,143.72h-2l-19,0a.52.52,0,0,0-.5.36L52.57,149a.53.53,0,0,0,.5.69H74.34l11.66,0a.53.53,0,0,0,.52-.43l.91-4.85a.53.53,0,0,0-.52-.63Z"/><path class="cls-13" d="M105.85,149.61H92.74a.54.54,0,0,1-.52-.62l.8-4.85a.54.54,0,0,1,.52-.45h12.83a.52.52,0,0,1,.52.59l-.51,4.85A.54.54,0,0,1,105.85,149.61Z"/><path class="cls-13" d="M125.7,149.59H112.58a.52.52,0,0,1-.52-.57l.4-4.86a.54.54,0,0,1,.53-.49h12.83a.53.53,0,0,1,.53.54l-.12,4.86A.53.53,0,0,1,125.7,149.59Z"/><path class="cls-13" d="M145.54,149.57H132.43a.53.53,0,0,1-.53-.53v-4.86a.53.53,0,0,1,.53-.53h12.83a.52.52,0,0,1,.53.5l.27,4.86A.52.52,0,0,1,145.54,149.57Z"/><path class="cls-13" d="M165.39,149.55H152.28a.52.52,0,0,1-.53-.48l-.38-4.86a.53.53,0,0,1,.52-.58h12.83a.54.54,0,0,1,.53.46l.66,4.86A.53.53,0,0,1,165.39,149.55Z"/><path class="cls-13" d="M185.22,149.54H172.13a.54.54,0,0,1-.53-.45l-.77-4.86a.53.53,0,0,1,.52-.62h12.82a.51.51,0,0,1,.51.42l1.06,4.86A.54.54,0,0,1,185.22,149.54Z"/><path class="cls-13" d="M204,143.59H190.81a.53.53,0,0,0-.51.66l1.17,4.86a.52.52,0,0,0,.51.41h13.79l19.12,0a.53.53,0,0,0,.5-.72l-1.85-4.87a.52.52,0,0,0-.5-.34Z"/><path class="cls-13" d="M72.49,135.45H57.37a.53.53,0,0,0-.5.37l-1.59,4.85a.53.53,0,0,0,.5.69h22.7a.54.54,0,0,0,.52-.42l1.1-4.85a.53.53,0,0,0-.52-.65Z"/><path class="cls-13" d="M97.15,141.34H84.53a.53.53,0,0,1-.52-.64l1-4.85a.51.51,0,0,1,.51-.42l12.34,0a.54.54,0,0,1,.53.61l-.72,4.85A.54.54,0,0,1,97.15,141.34Z"/><path class="cls-13" d="M116.32,141.31l-12.63,0a.53.53,0,0,1-.52-.6l.6-4.85a.53.53,0,0,1,.53-.47h12.35a.52.52,0,0,1,.52.56l-.32,4.86A.53.53,0,0,1,116.32,141.31Z"/><path class="cls-13" d="M135.5,141.29l-12.64,0a.53.53,0,0,1-.53-.56l.21-4.85a.54.54,0,0,1,.53-.51l12.36,0a.54.54,0,0,1,.53.53l.07,4.85A.54.54,0,0,1,135.5,141.29Z"/><path class="cls-13" d="M154.67,141.27l-12.63,0a.53.53,0,0,1-.53-.51l-.19-4.86a.53.53,0,0,1,.53-.55l12.35,0a.53.53,0,0,1,.53.48l.47,4.86A.53.53,0,0,1,154.67,141.27Z"/><path class="cls-13" d="M173.84,141.25H161.21a.53.53,0,0,1-.52-.46l-.58-4.87a.53.53,0,0,1,.52-.59H173a.53.53,0,0,1,.52.43l.86,4.87A.53.53,0,0,1,173.84,141.25Z"/><path class="cls-13" d="M193,141.23H180.4a.54.54,0,0,1-.53-.42l-1-4.87a.53.53,0,0,1,.52-.63l12.33,0a.53.53,0,0,1,.51.4l1.26,4.87A.54.54,0,0,1,193,141.23Z"/><path class="cls-13" d="M212.57,135.27H197.88a.54.54,0,0,0-.51.68l1.36,4.86a.54.54,0,0,0,.51.39h22.5a.53.53,0,0,0,.5-.72l-1.85-4.87a.52.52,0,0,0-.49-.34Z"/><path class="cls-13" d="M70.6,133.09l-12.1,0a.53.53,0,0,1-.51-.7l1.59-4.84a.53.53,0,0,1,.5-.37l11.83,0a.53.53,0,0,1,.51.67l-1.31,4.85A.53.53,0,0,1,70.6,133.09Z"/><path class="cls-13" d="M89.11,133.07H77a.53.53,0,0,1-.51-.65l1.19-4.85a.53.53,0,0,1,.52-.41H90a.52.52,0,0,1,.52.62l-.92,4.86A.52.52,0,0,1,89.11,133.07Z"/><path class="cls-13" d="M107.62,133l-12.14,0a.54.54,0,0,1-.53-.62l.8-4.85a.54.54,0,0,1,.53-.44l11.86,0a.53.53,0,0,1,.53.58l-.52,4.86A.53.53,0,0,1,107.62,133Z"/><path class="cls-13" d="M126.13,133H114a.53.53,0,0,1-.53-.57l.41-4.86a.53.53,0,0,1,.53-.48l11.87,0a.53.53,0,0,1,.53.54l-.13,4.86A.52.52,0,0,1,126.13,133Z"/><path class="cls-13" d="M144.63,133l-12.16,0a.53.53,0,0,1-.53-.53v-4.86a.53.53,0,0,1,.53-.53l11.88,0a.53.53,0,0,1,.53.5l.27,4.86A.53.53,0,0,1,144.63,133Z"/><path class="cls-13" d="M163.12,133H151a.52.52,0,0,1-.53-.48l-.39-4.86a.54.54,0,0,1,.53-.58h11.87a.53.53,0,0,1,.53.45l.66,4.87A.54.54,0,0,1,163.12,133Z"/><path class="cls-13" d="M181.62,132.94l-12.14,0a.53.53,0,0,1-.52-.45l-.78-4.86a.53.53,0,0,1,.52-.61l11.86,0a.53.53,0,0,1,.52.42l1.06,4.86A.53.53,0,0,1,181.62,132.94Z"/><path class="cls-13" d="M200.11,132.92l-12.12,0a.52.52,0,0,1-.51-.41l-1.18-4.87a.53.53,0,0,1,.52-.65l11.83,0a.52.52,0,0,1,.51.38l1.46,4.87A.53.53,0,0,1,200.11,132.92Z"/><path class="cls-13" d="M218.6,132.89l-12.1,0a.53.53,0,0,1-.5-.37l-1.57-4.87a.53.53,0,0,1,.51-.69l11.81,0a.52.52,0,0,1,.49.34l1.85,4.88A.52.52,0,0,1,218.6,132.89Z"/><rect class="cls-14" x="54.64" y="7.81" width="165.3" height="109.83"/><rect class="cls-13" x="54.64" y="7.81" width="165.3" height="14.17"/><path class="cls-15" d="M58.12,15.32a3.79,3.79,0,0,0,7.53,0,3.79,3.79,0,0,0-7.53,0Z"/><path class="cls-15" d="M68.81,15.32a3.79,3.79,0,0,0,7.54,0,3.79,3.79,0,0,0-7.54,0Z"/><path class="cls-15" d="M79.51,15.32a3.79,3.79,0,0,0,7.53,0,3.79,3.79,0,0,0-7.53,0Z"/><rect class="cls-16" x="63.23" y="29.26" width="68.82" height="2.22"/><rect class="cls-16" x="141.21" y="29.26" width="68.82" height="2.22"/><rect class="cls-16" x="141.21" y="59.18" width="42.15" height="2.22"/><rect class="cls-16" x="141.21" y="63.57" width="42.15" height="2.22"/><rect class="cls-16" x="141.21" y="67.97" width="68.82" height="2.22"/><rect class="cls-16" x="63.23" y="34.81" width="148.84" height="2.22"/><rect class="cls-16" x="63.23" y="39.38" width="148.84" height="2.22"/><rect class="cls-16" x="63.23" y="111.99" width="68.82" height="2.22"/><rect class="cls-16" x="141.86" y="111.99" width="68.82" height="2.22"/><rect class="cls-17" x="61.78" y="61.74" width="70.62" height="9.92"/><rect class="cls-17" x="61.78" y="46.57" width="70.62" height="9.92"/><rect class="cls-17" x="61.78" y="77.92" width="70.62" height="9.92"/><rect class="cls-17" x="140.92" y="77.92" width="70.62" height="9.92"/><rect class="cls-17" x="140.92" y="94.11" width="70.62" height="9.92"/><rect class="cls-17" x="61.78" y="94.11" width="70.62" height="9.92"/><circle class="cls-16" cx="147.4" cy="82.87" r="1.9"/><path class="cls-16" d="M153.84,82.87a1.9,1.9,0,1,1,1.9,1.9A1.9,1.9,0,0,1,153.84,82.87Z"/><circle class="cls-16" cx="164.07" cy="82.87" r="1.89"/><circle class="cls-16" cx="147.4" cy="98.79" r="1.9"/><path class="cls-16" d="M153.84,98.79a1.9,1.9,0,1,1,1.9,1.9A1.9,1.9,0,0,1,153.84,98.79Z"/><circle class="cls-16" cx="164.07" cy="98.79" r="1.89"/><circle class="cls-16" cx="172.41" cy="82.87" r="1.9"/><path class="cls-16" d="M178.86,82.87a1.9,1.9,0,1,1,1.89,1.9A1.89,1.89,0,0,1,178.86,82.87Z"/><circle class="cls-16" cx="189.09" cy="82.87" r="1.9"/><circle class="cls-18" cx="201.49" cy="84.87" r="29.76"/><path class="cls-19" d="M192.3,52.71a33,33,0,1,0,33,52.53L253,123c1.83,1.17,6.82,2.19,8,.36s-2.14-5.94-4-7.11l-23.47-15-4.2-2.68A33,33,0,0,0,192.3,52.71Zm13,59.16a27.61,27.61,0,1,1,21-32.89A27.6,27.6,0,0,1,205.29,111.87Z"/><path class="cls-20" d="M261,123.4h0a3.94,3.94,0,0,1-5.43,1.19l-22.38-14.32a3.94,3.94,0,0,1-1.19-5.43h0a3.94,3.94,0,0,1,5.43-1.19L259.79,118A3.94,3.94,0,0,1,261,123.4Z"/><circle class="cls-21" cx="198.11" cy="67.7" r="6.88"/><path class="cls-21" d="M214.68,72.32a4,4,0,1,1-4-3.95A4,4,0,0,1,214.68,72.32Z"/><polygon class="cls-22" points="239.91 161.25 239.53 166.25 237.03 166 236.78 160.87 239.91 161.25"/><polygon class="cls-22" points="269.02 167.92 270.86 172.59 268.5 173.46 266.04 168.95 269.02 167.92"/><path class="cls-23" d="M240.66,164.88l-4.13.62s-4.13,2.76-5.76,2.88-3.26,1.63-1.63,1.88,12-.5,12-.5Z"/><path class="cls-23" d="M253.57,130.06s-13.71,7.27-13.09,13.53.68,18,.68,18l-5.89-.12S233,141.72,233,138s12.66-23.27,12.66-23.27Z"/><path class="cls-23" d="M271.22,171.85,267,173.48s-.25,3-1.88,3.38-4.13,1.62-3.88,2.63,7.52-.51,7.52-.51l4.75-3.75Z"/><path class="cls-24" d="M259.07,115.13s1,24.42,2,26.68,10.4,27.41,10.4,27.41l-5.63,1.38s-15.4-26.3-16.28-32.56-4.23-22.89-4.23-22.89Z"/><path class="cls-22" d="M241.8,70.31s-1.63,9.76,4.63,9.76l-.25,6.77,5.76-2.51-.38-14.9-7.63-.25Z"/><path class="cls-23" d="M246.7,70.68s-7.23.34-7.36-1-.17-7,6.21-4.85,8.77,2.13,8.14,5.13-1.75,6.64-1.75,6.64l-1.25-.5-.75-3.13a1.65,1.65,0,0,0,.75-2.51c-2.06-3-2.2,4.17-2.2,4.17Z"/><path class="cls-25" d="M252.06,81.08l-6.26,2.63s-2.64,4.4-2.74,8.43c-.1,3.64,1.22,6.67,1.58,9.63.87,7.1,2.66,5.87,1.06,10.48-1.5,4.3-2.81,5.8-2.81,5.8l16.48-1.12-1.25-15.36Z"/><path class="cls-22" d="M234.28,109.5h-.82a10.17,10.17,0,0,1-2.58-.46,6.23,6.23,0,0,1-1.51-.74,4.75,4.75,0,0,1-1.14-1.14l-.06-.08a.95.95,0,0,0-1.6,1A7,7,0,0,0,228,110a8.87,8.87,0,0,0,1.92,1.32,11.69,11.69,0,0,0,2.11.79,10.16,10.16,0,0,0,1.09.26l.56.09c.2,0,.37,0,.61.06h.1a1.51,1.51,0,0,0,.18-3A1.31,1.31,0,0,0,234.28,109.5Z"/><path class="cls-26" d="M252.56,82.45s-6.08-.52-3.45,8.25,4.91,13.13-1.1,15.13A98.47,98.47,0,0,1,233.66,109l.5,4.75S257,112.48,257.5,106s.07-16.76-.55-18.13S253.82,83.2,252.56,82.45Z"/><path class="cls-23" d="M246.78,69s9.45-.9,3.15,5.7,2.85,13,4.35,14.7-1.05,8.25,1.35,9.15,14.36,13.68,12.45-2.25S259.61,85,257.74,78.21c-2.17-7.82-3.16-18.38-11.11-13.43l-3.16,1.8Z"/><path class="cls-23" d="M250.75,65s-3.15-3.9-1.05-4.65,6.6.9,4.2,3.15S250.75,65,250.75,65Z"/><path class="cls-26" d="M249.47,63.11a11.45,11.45,0,0,0,3.68.92s1,1.49-.86,1.26-4.08-.75-3.8-1.38S248.84,62.88,249.47,63.11Z"/><path class="cls-27" d="M109.21,162.75s-7.28-.18-8.38-5.83l-1.34,2.61s-2.35-1.68-1.12-3.61,4.32-5.59,9.89-4.16c2.29.59,4.44,1.59,5.54,3.36a13.16,13.16,0,0,1,.87,11.62c-4.31,9.92-2.59,5.87-8.89,4.22C102.88,170.2,109.12,168.33,109.21,162.75Z"/><path class="cls-22" d="M110,160.12s.17,7.6-1.94,8.08l0,3.33,2.85.64s-1.82,4.94-7,4.13-4-5.48-4-5.48l-2.89-9,1.1-3.73,5.82-1.53,3.26-1.23L110,156Z"/><path class="cls-28" d="M110.34,171.89s5.91.74,7.24,3.64,4.11,8.9,4.11,8.9l-6.12-1L114.65,194l-18.46-.61-.67-11.87L102.9,176s3.93.14,5.39-.67S110.34,171.89,110.34,171.89Z"/><path class="cls-28" d="M100.78,171.81s-1.06,4.68,5.12,4.37-11.36,8.42-11.73,8.4-4.53,1-4.53,1,2.5-8,6.09-11.12c1.5-1.31,1.47-1.65,2.11-2A10.06,10.06,0,0,1,100.78,171.81Z"/><path class="cls-27" d="M102.07,171.78a6.06,6.06,0,0,1-5.46-4.39c-.9-3.37-.94-9.45,1.14-12.95,1.1-1.85,3-2.22,3.92-2.63.62-.26,6.88.48,9.29,3.06,1.73,1.85-.12,5.45,0,6.59,0,.34-.82-1.47-2.49-1.61-.81-.06-.24-2-.47-2.12s-.43,2.12-.7,2a4.78,4.78,0,0,0-3.11-.37c-.54.07-1,.1-1.37.13-.17,0-.26-1.13-.4-1.13s-.34,1.17-.45,1.18c-.62,0-.85.08-.89.36-1.08,7,1.54,8.54,1.54,8.54Z"/><path class="cls-29" d="M114.38,173.55c-.84.67-.46,6.8.46,9,.45,1.07,1.74,4,2.66,5s1.84,3.86,1.29,5a34.51,34.51,0,0,0-1.37,4.06l.08,4.94s6.62-2.57,6.62-8.82-4.41-14-4.41-14S116.22,172.08,114.38,173.55Z"/><path class="cls-21" d="M93.73,200.85c0-.3.23-11.14.23-11.14H117.5V202l-11.36,4Z"/><circle class="cls-30" cx="105.77" cy="195.95" r="0.82"/><polygon class="cls-22" points="89.06 211.1 94.92 210.72 95.14 213.55 88.76 213.18 89.06 211.1"/><path class="cls-30" d="M94.48,210.65l.52,4s26.44-5.12,28.52-5.94,12.85-5,11.51-8.47-12.7-2.22-21.76,1A116.85,116.85,0,0,0,94.48,210.65Z"/><path class="cls-27" d="M88.22,213.6s-7.06,1.63-8,1.26-3.57-1.56-3-3.56,4.09-2.31,6.54-1.86,6,1.26,6,1.26l.3,2.45Z"/><polygon class="cls-22" points="115.13 213.25 122.33 213.47 122.4 210.8 115.35 209.54 114.46 211.39 115.13 213.25"/><path class="cls-31" d="M116.31,208.5l-1.11,5.2s-18.49-2-27.33-5.13-16.19-4.68-12.33-9.88S116.31,208.5,116.31,208.5Z"/><path class="cls-27" d="M123.81,210.58s7.06-1.64,8-1.27,3.56,1.56,3,3.57-4.08,2.3-6.54,1.86-6-1.27-6-1.27L122,211Z"/><path class="cls-29" d="M97.19,173.18c.84.67.46,6.8-.46,9-.44,1.07-1.74,4-2.66,5s-1.84,3.86-1.29,5a18.67,18.67,0,0,1,1,3.4l-.24,5.11s-6.11-2.08-6.11-8.33,4.41-14,4.41-14S95.35,171.71,97.19,173.18Z"/><path class="cls-27" d="M108.13,171.53l.68,1.71s-2,3.1-.65,4.72c0,0-1.14,2.28.65,3.74,0,0-1.62,4.07.65,5.7a5.42,5.42,0,0,0,.49-5.53s2-2.12.49-3.58a2.93,2.93,0,0,0,1.14-3.09l.49-3.42-1.47-2.44Z"/><path class="cls-27" d="M102.07,171.78l-1.23,2.44s1.63,1.95,0,3.58c0,0,2,2.28-.49,3.58,0,0,2,5.53-.32,6.18-1,.28-1.14-3.9-.49-5.86,0,0-2-3.25-.33-4.23,0,0-1.95-2.76-.32-3.57,0,0-1.46-1.31-1.63-5.37s1.63-1,1.63-1Z"/><path class="cls-32" d="M59.92,72.09c-.43-.24-3.28,3.77-3.28,3.77L56.28,75c-.5-1.92-1.64-.72-1.64-.72A30.88,30.88,0,0,1,56,78.18a12,12,0,0,1,.09,1.7c.11-.16.2-.26.27-.26l2.39,1.5a16.43,16.43,0,0,0,2.9-4.7A4,4,0,0,0,59.92,72.09Z"/><path class="cls-33" d="M56.08,79.88c-1.11,1.76-3.78,12-3.78,12-2.36-4.81-10.71-13.55-10.71-13.55l.08.37S45.85,84,46.51,93c.09,1.1-2.21,2.77-2.16,3.9,2.27,2.51,8,5.73,8.21,5.85,6.44,4.4,6.22-21.55,6.22-21.55l0,0-2.39-1.5C56.28,79.62,56.19,79.72,56.08,79.88Z"/><path class="cls-23" d="M13.6,92.27c.49-4.46.25-6.27,2.17-9.4,3.05-5,3.26-3,4.47-2.9a25.82,25.82,0,0,1,2.58.72l2.63.14c-2.19.81-3.82,8.1-2.55,10.17.48.78-2.18-.42-.72,2.17.31,4.07.69,8.57,1.1,12.34a11,11,0,0,1-.63,2.44c-.48.24-3.14,1-2.41,1.93s.72,2.29,2.89,1.44a2,2,0,0,0,.81-.68c0,.34.1.66.16,1,.18,1,.57,2.44,1,4-2.24.47-5.83,4.81-8.25-.67.62-.34.35-.81.35-.81s-2-5.19-2-6.64a59.84,59.84,0,0,0-1-6.27l-.21.08c-.26-1.79-.47-3.5-.64-5.07C13.6,95.82,13.33,94.8,13.6,92.27Z"/><path class="cls-23" d="M35,179.25l.3,1s2,4.13,1.56,4.69-5,.45-5.58-.34.67-3.35.67-3.35l.24-2C32.92,179.31,34.14,179.28,35,179.25Z"/><path class="cls-23" d="M43.49,123.14a28.42,28.42,0,0,0,3.81-.7,9.55,9.55,0,0,0,1.65-.62l16.2,56.34c-.37.18-1.32.51-2.32.84l.72,1.44s8.27-1,8.61.56.11,3.35-3.69,3.13a39.73,39.73,0,0,1-7.6-1.34v-3.17l-1.13.34L40.51,137.31v-.14Z"/><path class="cls-28" d="M29.92,79.31c.77.34,3.88,1.85,5,2.38s2.38,1.5,3.09.44c-.36,1,1.06.62,1.41.27a12.65,12.65,0,0,0,1.14-4.21c1,3,3.85,11.22,4.25,12.51.48,1.57,1.2,4.71,1.2,4.71s.09-.21.2-.51l.09.76c-.5-.22,1.45,10.59,1.47,10.94.3,4.41-7,5.94-9.6,7.35,1.46-1-10.8-.3-10.8-.3-.42-.41-.89-26.3-3.72-31.35.11-1.55,5.09,3.73,5,2.86a13.85,13.85,0,0,0-1.91-5.52C26.85,79.3,27.34,78.17,29.92,79.31Z"/><path class="cls-28" d="M38.29,77.27a6.33,6.33,0,0,1,.65,2.64c-.14-.77-.45-1.73-.66-2.64Z"/><path class="cls-28" d="M37.39,81l.84.45a.71.71,0,0,0,.21,0,1.56,1.56,0,0,0-.4.71C38.12,82,37.87,81.57,37.39,81Z"/><path class="cls-28" d="M36.37,100.75c-.45.16-.77.21-.88.1A3,3,0,0,0,36.37,100.75Z"/><path class="cls-28" d="M23.28,105.51c-.41-3.77-.79-8.27-1.1-12.34.78,1.38,1.64,2.89,2.54,4.43C24.21,100.53,23.68,103.5,23.28,105.51Z"/><path class="cls-28" d="M23.94,110.64c1.43-1.82,2.66-6.57,3.17-9,2.34,3.84,4.54,7,5.55,7.42,1.43.52,6.6-3.37,10.66-6.71a29.88,29.88,0,0,0,3.74-.08c.39,3.43.72,6.34.77,6.52.08.33.52,6,.75,8.94-.91.56-8.27,2.27-9.48,2.44s-11.23,0-12.16,1.34c-.39-1.21-1.16-3.64-1.82-5.91-.45-1.55-.84-3-1-4C24,111.3,24,111,23.94,110.64Z"/><path class="cls-32" d="M28,63.48c0-.07,0-.13,0-.2h0C28.05,63.35,28,63.42,28,63.48Z"/><path class="cls-32" d="M27.93,64.71c0-.2,0-.4,0-.6a.29.29,0,0,1,0,.09Q27.95,64.44,27.93,64.71Z"/><path class="cls-23" d="M41.4,64.48s0,0,0,0a6.65,6.65,0,0,0-.67-2.72l-.32.48-.26.06a5.27,5.27,0,0,1-3,.72,12,12,0,0,1-2.9-.33,4.37,4.37,0,0,0-2.12,2.81c0,.07-.1,1.12-.09,1.48a3.21,3.21,0,0,1-.25,1.38l-.32-.15c-.44-.15-.6-.84-.66-1.29a3,3,0,0,0,.11-.93c0-1-.51-1.87-1.08-1.86s-1,.87-1,1.92a2,2,0,0,0,.87,1.83h0l.69.79.18.21,0,1.91a.45.45,0,0,1-.54.1,8.17,8.17,0,0,1-1.51-2.18A5.43,5.43,0,0,1,28,67.05a10,10,0,0,1-.07-2.34q0-.27,0-.51a.29.29,0,0,0,0-.09h0a.34.34,0,0,0,0-.1c0-.17,0-.35.07-.52s0-.13,0-.19h0v-.07h0c0-.11.05-.22.08-.33s.05-.16.07-.23l.12-.36c0-.08.05-.15.08-.22l.18-.39.07-.16c.09-.17.19-.34.29-.51a.91.91,0,0,0,.11-.16c.08-.11.15-.22.23-.32l.16-.2c.07-.09.15-.17.23-.26l.17-.19.26-.24.18-.17c.11-.09.22-.18.34-.26l.22-.16.39-.25.22-.12.21-.12a4.4,4.4,0,0,1,.52-.3v0l.14,0a6.86,6.86,0,0,1,1.41-.48,13.3,13.3,0,0,1,4-.8A38.81,38.81,0,0,1,43,58.4L41,61.28a8.2,8.2,0,0,1,.54,3.57c-.08.36-.15.63-.19.83a11.1,11.1,0,0,0,0-1.12A.22.22,0,0,0,41.4,64.48Z"/><path class="cls-32" d="M38.94,79.91a2.13,2.13,0,0,1-.11.63,2.72,2.72,0,0,1-.39.88.71.71,0,0,1-.21,0L37.39,81a14.47,14.47,0,0,0-4.21-3.37c-1.6-.8-2.13-1.53-2.3-2l-.24-4.45,0,0v-.46l0-1.91-.18-.21-.69-.79h0A2,2,0,0,1,28.84,66c0-1.05.41-1.9,1-1.92s1.05.82,1.08,1.86a3,3,0,0,1-.11.93c.06.45.22,1.14.66,1.29l.32.15A3.21,3.21,0,0,0,32,66.94c0-.36.09-1.41.09-1.48a4.37,4.37,0,0,1,2.12-2.81,12,12,0,0,0,2.9.33,5.27,5.27,0,0,0,3-.72l.26-.06.32-.48a6.65,6.65,0,0,1,.67,2.72s0,0,0,0a.22.22,0,0,1,0,.08,11.1,11.1,0,0,1,0,1.12c-.19,2.7-.3,6.9-1.94,8.17-.26.2-1.37.29-1.38.58-.05,1.28,0,1.35,0,1.35a6.25,6.25,0,0,0,.17,1.49C38.49,78.18,38.8,79.14,38.94,79.91Z"/><path class="cls-24" d="M34,124.12c1.27-.11,5.92-.49,9.53-1l-3,14v.14l-4.64,40.91,0,1-.86,0c-.83,0-2,.06-2.81,0-.39,0-.66-.07-.69-.15-.11-.34-2.68-18.89-2.46-23.92.19-4.26-.93-24.56-1.28-30.69C29.05,124.84,32.09,124.28,34,124.12Z"/><path class="cls-24" d="M27.11,101.62c-.51,2.45-1.74,7.2-3.17,9a2,2,0,0,1-.81.68c-2.17.85-2.17-.48-2.89-1.44s1.93-1.69,2.41-1.93a11,11,0,0,0,.63-2.44c.4-2,.93-5,1.44-7.91C25.5,99,26.31,100.32,27.11,101.62Z"/><path class="cls-24" d="M46.35,94.61c0,.1-.07.2-.11.29-.11.3-.2.51-.2.51s-.72-3.14-1.2-4.71c-.4-1.29-3.27-9.49-4.25-12.51a3.68,3.68,0,0,0,0-.47,1.54,1.54,0,0,0-.28-.75c.26-.18,1.32.09,2.48.83,0,0,.13.31.34.87a56.47,56.47,0,0,1,3.51,14.57A4.11,4.11,0,0,1,46.35,94.61Z"/><path class="cls-24" d="M12.88,81.06c1.61-4.4,8.7-5.78,12.41-5.49-1.62,3.92,1.46,4.16,1.46,4.16a.27.27,0,0,1,0-.09c.95,1.51,2.43,4.46,2.58,12.86,0,.88-2.59,11.06-2.7,12.6-1.74-3.1-1.34-21.65-1.55-22a4.33,4.33,0,0,0-1.24-1.55l-.44-.74-.6-.14A25.82,25.82,0,0,0,20.24,80c-1.21-.12-1.42-2-4.47,2.9-1.92,3.13-1.68,4.94-2.17,9.4-.27,2.53,0,3.55-.24,3.93s-.67.22-1.93.17C8.54,96.25,11.07,86,12.88,81.06Z"/><path class="cls-24" d="M15.17,107.46c0,1.45,2,6.64,2,6.64s.27.47-.35.81a3,3,0,0,1-1,.27c-1.81.24-2.66-5.3-3.62-9.16-.89-3.54.86-4.44,1.72-4.75l.21-.08A59.84,59.84,0,0,1,15.17,107.46Z"/><path class="cls-33" d="M33.18,77.63A14.47,14.47,0,0,1,37.39,81c.48.57.73,1,.65,1.13-.71,1.06-1.94.09-3.09-.44s-4.26-2-5-2.38c-2.58-1.14-3.07,0-3.15.33a.27.27,0,0,0,0,.09s-3.08-.24-1.46-4.16c.05-.11.08-.21.13-.32,1.94-4.23,5.3-2.12,5.3-2.12l.08,2a.89.89,0,0,0,.08.48C31.05,76.1,31.58,76.83,33.18,77.63Z"/><path class="cls-33" d="M40.59,78.19a12.65,12.65,0,0,1-1.14,4.21c-.35.35-1.77.7-1.41-.27a1.56,1.56,0,0,1,.4-.71,2.72,2.72,0,0,0,.39-.88,2.13,2.13,0,0,0,.11-.63,6.33,6.33,0,0,0-.65-2.64l-.18-1.49.19-.62a7.14,7.14,0,0,1,2,1.81,1.54,1.54,0,0,1,.28.75A3.68,3.68,0,0,1,40.59,78.19Z"/><path class="cls-33" d="M39.1,120.15c1.21-.17,8.57-1.88,9.48-2.44l0,0c.71-.53,1.41,1.59,1.41,2.47A1.56,1.56,0,0,1,49,121.82a9.55,9.55,0,0,1-1.65.62,28.42,28.42,0,0,1-3.81.7c-3.61.49-8.26.87-9.53,1-1.87.16-4.91.72-6.23.37a1.42,1.42,0,0,1-.31-.11c-.63-.32-.68-1.7-.56-2.72a.38.38,0,0,1,.08-.17C27.87,120.16,37.91,120.32,39.1,120.15Z"/><path class="cls-34" d="M8.78,122.58l6.8-4.43-2-3L8,118.73l-1.25.8-1.24.81C7,122,8.25,122.92,8.78,122.58Z"/><path class="cls-35" d="M1,113.33l1.24-.81,1.24-.81L9,108.09l-2-3L.25,109.48C-.28,109.82.06,111.33,1,113.33Z"/><path class="cls-36" d="M85,65.45c-.31-.5,1.21-1.68,1.15-2.34l-8.43,8.82L76,73.68l-.9.95a4.54,4.54,0,0,0,1.5,0c.87-.1,1.8-.2,2.28.37a1.77,1.77,0,0,1,.33,1l.56-.85L86,65.6C85.55,65.69,85.12,65.66,85,65.45Z"/><path class="cls-37" d="M72.49,64.46c.3.67-.35,1.52-.94,2.33a3.46,3.46,0,0,0-.83,1.54l1.48-.53L74.49,67,86,62.83c-.59-.4-2.57.31-2.85-.24-.08-.15,0-.37.14-.6L72.4,63.77l-.53.09A1.39,1.39,0,0,1,72.49,64.46Z"/><path class="cls-38" d="M73,69a8,8,0,0,1,2.8,0,.84.84,0,0,1,.49.36.88.88,0,0,1,.11.56,7.84,7.84,0,0,1-1.21,2.46c-.47.79-.82,1.51-.51,2a.71.71,0,0,0,.44.28l.9-.95,1.68-1.75,8.43-8.82a.26.26,0,0,0,0-.15.49.49,0,0,0-.12-.13L74.49,67l-2.29.83-1.48.53a.6.6,0,0,0,.07.35C71.06,69.18,72,69.14,73,69Z"/><path class="cls-39" d="M3,117a29.47,29.47,0,0,0,2.51,3.35l1.24-.81,1.25-.8,5.56-3.62-4.56-7-5.57,3.62-1.24.81L1,113.33A29.28,29.28,0,0,0,3,117Z"/><path class="cls-28" d="M83.13,62.59c.28.55,2.26-.16,2.85.24a.49.49,0,0,1,.12.13.26.26,0,0,1,0,.15c.06.66-1.46,1.84-1.15,2.34.13.21.56.24,1.05.15l3-4.55L83.27,62C83.12,62.22,83.05,62.44,83.13,62.59Z"/><path class="cls-40" d="M78.91,75c-.48-.57-1.41-.47-2.28-.37a4.54,4.54,0,0,1-1.5,0l-.65.68L74,75.8l-53.9,35.07,2,3,55.64-36.2.65-.43L79.24,76A1.77,1.77,0,0,0,78.91,75Z"/><rect class="cls-41" x="13.96" y="112.7" width="7.76" height="3.63" transform="translate(-59.56 28.26) rotate(-33.05)"/><rect class="cls-42" x="7.42" y="102.64" width="7.76" height="3.63" transform="translate(-55.14 23.06) rotate(-33.05)"/><path class="cls-43" d="M15.54,103.86l53.9-35.07.09,0,1.19-.43a3.46,3.46,0,0,1,.83-1.54c.59-.81,1.24-1.66.94-2.33a1.39,1.39,0,0,0-.62-.6l-2,.33-1.68,1.09L13.56,100.81Z"/><path class="cls-44" d="M74,75.8l.47-.49.65-.68a.71.71,0,0,1-.44-.28c-.31-.45,0-1.17.51-2a7.84,7.84,0,0,0,1.21-2.46.88.88,0,0,0-.11-.56.84.84,0,0,0-.49-.36A8,8,0,0,0,73,69c-1,.1-2,.14-2.22-.36a.6.6,0,0,1-.07-.35l-1.19.43-.09,0-53.9,35.07,4.57,7Z"/><rect class="cls-45" x="10.69" y="105.3" width="7.76" height="8.37" transform="translate(-57.35 25.66) rotate(-33.05)"/><path class="cls-32" d="M36.1,101.87l-.06,0,1,3.25,1.5-.2c.35,0,.71-.1,1.11-.16,4.89-.74,3.46-2.77,3.46-3.94s-4.83-.55-4.83-.55,1.1-2.34.71-2.53c-.18-.08-.75.78-1.31,1.73s-1.27,2.28-1.27,2.28Z"/><path class="cls-33" d="M36.75,106.19l.47-.42-.19-.63-1-3.25-.35-1.17-8.75,3.67c-.84-9.1-1.24-21.7-2.46-23.08a.27.27,0,0,0-.41,0C13.2,89.51,20,107.22,23,111.65a2.46,2.46,0,0,0,2,1.1C28.68,113,35,107.73,36.75,106.19Z"/></g></g></g></svg>